<svg id="Layer_1" data-name="Layer 1" xmlns="http://www.w3.org/2000/svg" viewBox="0 0 948.71 582.17"><defs><style>.cls-1{fill:#d2fa36;}</style></defs><path class="cls-1" d="M50,57.41H245.3c100.33,0,152.86,45.79,152.86,124.58,0,45.12-26.26,82.83-63.3,98.32,45.12,10.77,85.52,49.16,85.52,111.79,0,80.81-54.54,132.66-163,132.66H50ZM235.19,118H122.06V256.74H235.19c57.24,0,88.9-18.85,88.9-69.36C324.09,137.55,292.43,118,235.19,118ZM252,314.66h-130V464.83h129.3c59.93,0,94.95-20.88,94.95-74.75C346.31,334.86,312,314.66,252,314.66Z"/><path class="cls-1" d="M663.69,303.2H460.31V57.41h64v73.4C555.27,81,606.45,50,683.21,50c130,0,215.5,101.68,215.5,241.08,0,143.44-89.57,241.09-226.94,241.09-105.73,0-193.27-58.59-208.76-165h76.1c12.12,65.32,69.36,103,131.31,103,90.91,0,152.19-74.08,152.19-179.13,0-107.74-62-179.8-150.17-179.8-70,0-138.72,42.43-144.11,130.64H663.69Z"/></svg>